<svg viewBox="0 0 2597 885" xmlns="http://www.w3.org/2000/svg" xml:space="preserve" style="fill-rule:evenodd;clip-rule:evenodd;stroke-linejoin:round;stroke-miterlimit:2">
  <path style="fill:none" d="M0 0h2732v2048H0z" transform="scale(.95051 .43194)"/>
  <path d="M358 678c-8 1-16 6-24 8-16 2-54 4-74 8-18 4-41 16-50 18-4 0-6-6-5-9 1-4 7-10 11-13 5-5 13-7 19-12l60-63c8-10 11-22 20-31 9-10 25-19 35-28 8-8 12-22 22-28 6-4 14-10 23-12l24-3c1-1-2-21-2-23 5-13 3-21 6-31 2-8 9-14 16-18 9-4 24-7 35-10 11-4 26-4 32-11 5-6 2-19 4-28l15-51c5-20 10-54 13-68 1-5 3-13 6-16s7-1 11-2l73-6 30-3c10 0 21 4 32 3 31-1 93 3 135 11 48 9 104 5 156 8 49 3 128-3 193-8 24-1 47 1 65-1 47-5 93-9 139-15 42-5 116-10 189-20 67-10 134-24 165-29l34-4 20-8 78-15 18-4 78-19c6-2 11-8 17-10a423 423 0 0 1 109-25c21-1 52 1 67 3 7 1 16 3 22 7 6 5 12 12 15 19 3 6 2 14 5 20 4 11 16 33 21 45 4 8 4 17 7 25 4 10 8 21 13 30 3 4 1 10 4 14 2 4 9 5 12 7 10 6 34 9 46 14 9 4 20 8 26 14 5 6 9 14 8 22-1 10-12 33-15 42-1 4-4 9-2 12 1 3 7 5 11 7l24 12c5 4 10 8 13 13 3 7 1 20 7 26 7 9 30 17 38 25 6 6 6 18 11 25 5 6 27 11 20 15-8 3-45 2-66 4-19 2-38 8-58 7-13-1-44-3-60-7-11-2-10-7-16-8-5-1-11 3-14 2s0-7-2-8l-21-10c-3-1-5-5-8-7l-18-5-89-17c-18-4-40-12-53-16-9-2-20-2-27-5-5-2-9-6-12-11-4-8-11-28-12-39-1-9 5-20 6-27 0-5 0-11-2-15-3-5-7-13-12-12-24 4-85 25-128 35-59 13-152 33-230 43-52 8-135 17-204 24-34 4-58 8-87 10-14 1-16-4-28-3-29 3-57 1-87 2l-77 6-44 1c-61 4-125 14-182 15-53 1-131-16-159-10-4 1-7 2-8 6l1 12c1 10 2 21 0 27-2 8-9 16-12 22l-5 15c-1 3 2 7 1 10-3 6-11 21-20 29-10 7-24 13-38 15-14 3-35 1-47 2l-27 6c-5 1-10 4-16 4-9 1-26-2-37-1-9 1-19 1-28 5-10 5-19 15-29 21l-32 17-13 7c-2 1 1 3 1 5l-5 9c-1 3-4 5-6 6s-5-3-7-2-2 6-4 6c-21 6-46 0-60 1Z" style="fill:#fff"/>
  <path d="M210 711c-3-1-4-3-4-5 0-3 2-7 4-9l5-4c6-5 16-9 21-14l20-17a404 404 0 0 0 43-46c6-9 10-18 17-27 3-5 9-9 15-14l17-13c3-3 6-6 7-9 5-10 13-20 24-27 9-6 21-10 36-12a1 1 0 0 0 0-2 71 71 0 0 0-65 39l-6 6-17 12c-7 5-13 10-17 15l-5 6c-6 10-10 19-17 28a364 364 0 0 1-37 40l-18 18c-5 5-14 9-20 14l-5 5c-3 3-5 8-4 11 0 3 1 6 5 7l2-1-1-1Z"/>
  <path d="M429 672c-3 0-5-2-7-3l-9-11c-5-5-7-12-8-19-2-11 0-23 3-32 3-13 4-27 6-40l5-16c1-4 2-8 1-13v-11l2-4 1-8-1-11-2-9 4-25c1-6 2-11 5-15 2-6 8-9 14-12 15-7 35-10 48-15l10-5 5-1a1 1 0 0 0-1-3l-5 1-11 5c-13 4-33 6-48 12-8 4-15 8-18 15-3 5-5 10-6 16l-4 25v9l2 11v6l-3 7 1 12-1 11-5 17c-2 13-2 26-5 40-2 10-4 22-2 34 2 7 5 15 10 20l10 11 9 3a1 1 0 1 0 0-2ZM217 709l-3 2c-1 1 0 2 4 0l7-3 11-5 4-1 6-2 8-2 5-2 2-1 9-1 10-6 11-12a1 1 0 0 0-2-2l-12 10-9 3h-8l-4 1-7 3-7 3-3 1-6 3-9 7-7 4ZM286 692l1-1 13-1h30l9-2c4 0 7-1 10-3l9-2h42c8-1 15-2 19-5a1 1 0 0 0-2-3c-4 3-10 3-17 3l-26-3a152 152 0 0 0-18 0l-10 3-9 3-7 2-21 2-10 1-13 3c-3 1-2 3 0 3Zm0-2c0-1 0-1 0 0ZM290 651c3-1 12-2 19-1l8 1a235 235 0 0 0 42 15c13 3 24 3 31 0l1-1-2-1c-5 1-13 0-21-2l-12-4-12-4-10-3c-6-3-12-4-14-6l-7-1a63 63 0 0 0-25 5v2l1 1 1-1Zm-1-1ZM297 633l-2-1v2l1 1 10-2a91 91 0 0 1 33 1l8 2 21 5 19-1a1 1 0 1 0 0-3 75 75 0 0 1-26-4l-14-5a77 77 0 0 0-20-3l-12 1-10 3-8 4Zm0 1h-1 1Zm-1-1s0-1 0 0ZM310 618h-1v1h4a109 109 0 0 1 19 0l9 2a136 136 0 0 0 22 3c8 0 16-1 21-4a1 1 0 0 0 0-2h-15l-9-1-9-2a185 185 0 0 0-18-2h-9l-12 3-2 1v1ZM316 606l1-1h31l9-1h20c6 0 12 1 17 3a1 1 0 0 0 1-3l-15-5a108 108 0 0 0-36-2l-8 1-16 3-6 4 1 2 1-1Z"/>
  <path d="M333 585h-1v2h1l6-1 11-2h14l7 2a456 456 0 0 0 35 2 1 1 0 1 0 0-3l-20-4a196 196 0 0 0-21-4h-8l-8 1-11 5-5 2ZM352 571l2-1 7-1 8 1h20l12 1a1 1 0 0 0 2-3l-10-3a96 96 0 0 0-16-3 55 55 0 0 0-17 2c-6 1-10 3-10 6l1 1h1ZM370 545l1-1v1h-1 2l8-2 5-1h2l5-1h6l3-1a1 1 0 1 0 0-3l-6-1-4-2h-5a16 16 0 0 0-6 2 37 37 0 0 0-6 4l-4 3h-1v2h1Zm1-1Zm0-1v1-1ZM436 666l5-8v-1l-1-2v-1l6-5c10-6 24-9 31-15 6-5 17-13 28-19 6-4 13-7 20-9 10-2 28 1 43 1 7-1 14-1 18-4 9-3 18-6 28-7 14-2 28-2 40-2a85 85 0 0 0 54-18c9-8 14-16 17-26l1-3-1-6 1-5c2-7 8-13 12-20l4-10 2-18-2-26a1 1 0 0 0-1 0l1 26-2 17-4 10c-4 7-10 13-13 20l-1 4 1 5-1 5c-3 9-8 17-16 24-7 5-15 10-26 14-7 2-16 3-26 3-13 0-27 0-41 2-10 2-19 4-28 8-5 2-11 3-17 3-15 0-33-2-43 0-7 2-15 5-22 9-11 7-21 15-27 21-8 6-21 9-30 14l-7 6v1l1 3v1l-5 8 1 1a1 1 0 0 0 0-1Zm0 0Z"/>
  <path d="M709 554h-1c-5-2-19-8-22-8l-9-4c-13-6-22-14-36-18l-14-6-19-10c-16-9-36-16-53-25l-12-7-8-3-20-6-6-2h-1 1c-1 1-1-2-1-4v-14l2-21 2-25c0-3 0-6 2-9a361 361 0 0 0 16-67l3-28 5-17a54 54 0 0 0 3-17v-1l2-4h1l1-1c0-2-1-3-3-1l-4 5v2l-1 8-2 7c-3 6-4 12-6 19l-4 28c-1 11-4 22-7 33a361 361 0 0 1-14 43c-1 7 0 15-2 23a186 186 0 0 0-1 43l2 4 5 3 20 4 11 5 20 10 46 20a272 272 0 0 0 34 15c14 4 24 12 37 17 3 1 6 3 10 3l22 8h3v-1a1 1 0 0 0-2-1Zm1 0ZM544 258Z"/>
  <path d="M1103 452h-1 1s0 1 0 0h1l1-2h-1l-2-1-15 1-37 3-35 4-15 1-56 1-30 2h-13l-19-1-44-1h-2l-7-1-4-1h-14l-11-2-36-2a334 334 0 0 1-20-1h-8l-18-2h-27l-8-1-29-3-9-1c-8-2-15-5-23-6h-13l-24-3h-28c-11 3-21 9-25 15s-3 13 7 17l2 1 1 1a1 1 0 0 0 1-2h-1l-1-2h-1c-8-4-9-8-5-13 4-6 13-11 23-13l4-1h7l15 1 24 3 10 1h3l23 6 10 2 29 4h8l19 1h7l18 2h9l4 1 15 1 36 2 11 2h4l14 1 7 1h47a619 619 0 0 1 32 1l31-3 55-2 15-1 36-5 36-4 15-1h1Zm0-2h-1 1ZM417 639l6-4a41 41 0 0 0 12-11l12-10 14-8 16-5a277 277 0 0 0 37-15l1-2-2-1c-5 3-11 5-16 6l-23 6a328 328 0 0 0-23 7 75 75 0 0 0-20 19 44 44 0 0 1-9 11l-6 5-1 2 1 1 1-1Zm0 0Z"/>
  <path d="m420 617 1-1 2-3 11-8 17-10a187 187 0 0 1 27-10l12-2a27 27 0 0 0 9-4l9-5a1 1 0 0 0-1-3l-10 4-3 2h-5l-12 1a74 74 0 0 0-25 8 97 97 0 0 0-22 15c-1 3-8 8-10 12l-2 4 2 1v-1ZM428 649a64 64 0 0 1 23-17l12-5a202 202 0 0 0 21-11l13-10a1 1 0 0 0-1-3l-4 2-14 8-16 5a105 105 0 0 0-19 10 66 66 0 0 0-16 18l-1 2 1 3a1 1 0 0 0 1-2Zm0 0ZM530 564l12-1h15l24 4 25 5a600 600 0 0 0 37 6c6 1 14 2 22 1 5 0 10-1 14-3s5-4 7-6c2-3 2-7 3-10a1 1 0 0 0-2-2l-4 10-5 4-14 2c-7 0-14-2-20-3l-22-4a544 544 0 0 0-41-7l-23-1-16 1-11 1-3 1v2l1 1 1-1Zm0 0ZM486 561l7-2 15-4a166 166 0 0 1 60-5l12 1 32 1h28c6-1 13-2 19-5a1 1 0 1 0-1-3c-6 3-12 4-18 4l-28-3-31-2a305 305 0 0 0-32 0c-14 1-28 3-42 8l-15 5-7 3v2h1Z"/>
  <path d="m484 549 9-3 22-3 10-1 21-2 13-2h5l23 2c11 2 23 3 34 3 9 0 17-1 25-4a1 1 0 1 0-1-2c-7 2-15 2-24 1-11 0-22-3-33-5a158 158 0 0 0-30-2l-13 2-18 2-13 3-22 5c-4 1-7 3-9 5l-1 1h2Z"/>
  <path d="m477 537 13-3 33-2a881 881 0 0 1 50-3l30 2a540 540 0 0 0 31-1l-1-2a669 669 0 0 1-60-6h-21a358 358 0 0 0-30 3l-33 6c-6 1-11 2-13 4a1 1 0 1 0 1 2ZM464 526h1a304 304 0 0 1 42-7l10-1h21l20-1 28-2a357 357 0 0 1 14-2l-2-2h-40l-18-1a249 249 0 0 0-34 2 188 188 0 0 0-41 12h-2v2h1ZM465 515l2-1 4-1 5-1 13-4a104 104 0 0 1 21-3h8l15-2a523 523 0 0 1 37-4 129 129 0 0 0-37-3 197 197 0 0 0-37 4l-8 3-13 5-9 4-3 1v2h2ZM468 499l5-1 16-2 14-2 10-1 14-3 22-4a1 1 0 0 0-1-3 397 397 0 0 0-46 4l-15 3-17 6-4 3a1 1 0 0 0 2 0ZM457 487v-1h17l8-1a245 245 0 0 0 30-5l12-4a1 1 0 1 0-1-2l-18 1-12 1a118 118 0 0 0-20 4l-14 3-3 2-1 2h2Zm0-1v1-1ZM455 479l4-1 6 1h5l5-1 6-1 8-2 8-4 1-1c0-1-1-2-2-1h-11l-8 1-4 1-4 1-11 3-4 2v2h1ZM456 467h11a50 50 0 0 0 15-2l5-2 5-2 8-2a1 1 0 1 0 0-3 69 69 0 0 0-24 3l-5 1-4 1-9 2c-3 1-4 2-4 4l1 1 1-1ZM458 455h9l6-1a31 31 0 0 0 10-2l8-4a1 1 0 0 0 0-2h-10a50 50 0 0 0-9 1l-6 2-7 4a1 1 0 0 0-1 2ZM478 442h8l1-1 2-1 4-2a1 1 0 0 0 0-3l-3-1a20 20 0 0 0-5 0 7 7 0 0 0-2 0l-2 2c-3 1-4 3-5 4v2h2ZM548 466a1 1 0 1 0-1-2l-2 2 2 3 13 5 20 5 13 2 21 1h5a2127 2127 0 0 1 30 4 65 65 0 0 1 24 9l12 7c6 4 8 8 13 12l4 3a1 1 0 0 0 1-3c-5-3-7-8-11-12l-4-4-12-8-5-4c-6-3-13-6-20-7l-16-3-15-1-8-1h-18l-13-1c-7 0-13-1-20-3a73 73 0 0 1-13-3v-1Zm-1 0ZM659 521l5 1 14 4 4 1 4 2 9 4 10 3a1 1 0 0 0 1-2l-7-5-7-6a33 33 0 0 0-18-5h-10l-6 1h-1v1l1 1h1Zm0-2h-1 1Z"/>
  <path d="M560 457a227 227 0 0 1 64 9l20 5 18 3 7 1 10 4 23 11 4 2 14 12a1 1 0 1 0 1-3l-12-12c-2-2-3-3-5-3l-22-13a95 95 0 0 0-19-7l-17-3-21-4a307 307 0 0 0-65-4l-1 1 1 1ZM669 463v-1 1-1l1 1 10 2 7 3 9 3 5 2a125 125 0 0 1 24 12v-2a102 102 0 0 0-16-15 47 47 0 0 0-21-7l-16-1h-4l-1 2 1 1h1ZM537 343l2-6 11-13c4-8 8-14 13-19a55 55 0 0 1 28-19l13-3a232 232 0 0 1 41-5l19-2h8a1 1 0 1 0 1-3l-9-1-19 1a368 368 0 0 0-42 2l-14 3-13 6c-6 4-11 8-15 13-6 7-10 15-15 24l-9 15c-2 3-3 6-2 8l1 1 1-2ZM524 393c0-2 1-3 3-5 2-3 7-6 9-10a59 59 0 0 1 20-16l15-6 24-5a1 1 0 0 0 0-3c-10 0-18 0-26 2l-16 5c-5 2-9 5-12 8l-9 12-8 11-2 7 1 1 1-1ZM1134 451h4l16-1c18-2 37-4 55-4h84l24 2h7a457 457 0 0 0 78-9l11-1 27-1 20-2 79-10a1430 1430 0 0 0 171-25c21-5 43-7 65-11l16-3a1708 1708 0 0 0 177-48l29-7 12-4a587 587 0 0 1 112-26l59-9 15-2 9-6a1 1 0 0 0-2-3l-8 6-73 10a821 821 0 0 0-126 28l-29 7a4474 4474 0 0 1-193 49l-64 11a1554 1554 0 0 1-190 28l-80 11-26 1-12 2a1243 1243 0 0 1-83 9l-25-2-84 2c-19 0-37 2-56 5l-15 1h-5v1l1 1ZM554 256h16c21-2 42-5 64-5l18-3h5l27 3h7a1037 1037 0 0 1 89 4c29 4 56 10 85 13a748 748 0 0 0 137 3c19-1 37 1 55 1a284 284 0 0 0 49-2l82-7h65l37-3 86-11c22-3 46-3 69-5l17-2a8051 8051 0 0 0 188-28l52-12 17-2 40-5 9-2c6-3 11-6 18-7l67-15 16-2 8-2a1333 1333 0 0 1 83-24 883 883 0 0 0-91 22l-17 2-67 14-19 7-8 2-40 4-17 3-52 11-22 4a10530 10530 0 0 1-183 25c-23 1-46 1-69 4l-86 11-37 3h-64l-82 8-35 2c-18 1-37-1-55-1h-14a1773 1773 0 0 1-137-2c-28-2-56-8-84-11a419 419 0 0 0-96-4l-28-2h-5l-19 3c-21 0-42 4-63 5a299 299 0 0 1-17 2l1 1Z"/>
  <path d="M1974 138v-1h1-1v1-1h1l12-3 30-9 12-4 37-6a217 217 0 0 1 36-1c10 0 19 2 29 3l15-1a33 33 0 0 1 9 1l11 4a47 47 0 0 0 8 1l3 3c3 2 5 5 7 9l4 14 4 16 14 26a250 250 0 0 1 8 19l6 21 11 23c2 3 3 7 3 10 0 4 1 7 3 11 4 8 9 16 11 23l2 5v2l-5-1h-3l-13 4-4 2-2-2-2-3a37 37 0 0 0-3-5l-5-5-2-3-1-1h-1c-1 1 0 2 1 3l6 8 1 1 2 3 1 3c2 3 3 4 5 4 3 0 8-4 17-5l10 1h3l2-1c0-1 1-2-1-3l-1-1-1-2-2-5c-2-8-7-16-10-24l-3-9-2-12-11-24-5-19-3-9-5-12-14-27-4-14-4-16-9-12-3-3-3-1h-5l-4-1-10-3a34 34 0 0 0-11-1h-15l-28-2h-13l-25 2-37 8-13 4-29 10-12 4h-2v2l2 1Zm237 153Zm-236-155Zm-1 0h1-1ZM2253 280v-1c-1 0-3 1-2 2l2 2 4 2 2 1 22 6 15 4 4 2c4 2 7 5 11 6l10 6 6 9c3 5 2 10 0 16-2 9-7 18-10 26l-2 6-4 20-9 26c-2 7-2 13-2 19l2 1 1-1c0-6 1-12 3-17l10-26 2-5c2-7 3-14 6-20 1-5 4-10 7-15l5-17c1-6 1-11-2-16-1-4-4-7-7-10s-8-5-14-8l-10-5-6-2-15-3-9-2-13-3h-2l-4-2-1-1Zm0 1h-1 1Zm-1 0Zm1 0Zm0-1Zm0 0Z"/>
  <path d="m2324 391 1 1 6 2 3 1 1 1 6 2 2 1 7 6c6 4 9 8 11 13 4 8 4 18 7 26l2 2 7 4 18 10 7 5c3 2 4 4 5 6l3 11c1 4 3 8 6 11l3 2 8 3 6 4 2 3v2l-1 1h-12l-13 1-34-2-12 1c-14 2-29 6-44 7l-8-1h-17a89 89 0 0 1-32-5l-6-1c-4-1-9-5-13-7l-4-1a59 59 0 0 0-11 1h-1l-1-4c-1-3-2-4-4-4l-6-1c-3-2-4-5-9-7h-5l-3-4c-1-2-2-3-4-3l-3-1-8-1-6-3-2-1h-3l-6-1-12-3-5-1-10-1-4-1-13-2-9-1a1 1 0 0 0 0 3l8 1c5 0 10 2 13 3l4 1 10 1 5 1 12 3 7 1 2 1c3 0 4 2 6 3h2l8 2h2l2 2 4 5 2 1 4 1c4 1 6 4 9 6l6 2v1l1 5c0 2 2 3 3 3h2l3-1 4-1h5l3 1 9 6 4 2h7l2 1a121 121 0 0 0 31 5l17 1h20c15-2 29-7 44-7l33 2 15-1 9-1 5-1c3-1 4-3 5-5l-1-6-4-6c-1-2-4-3-7-5l-8-2-1-1c-4-3-4-7-5-11l-4-9c-1-3-3-6-7-9l-8-4-18-10c-2-1-6-2-7-4-3-8-3-17-7-26-3-5-7-10-13-13l-8-6-2-1-7-3-3-2-6-1-1-1h-3l1 2h1Zm-119 100Zm-3-6s0-1 0 0h1v1-1h-1Zm122-94h-1 1ZM1986 345c2 5 2 9 1 14-1 8-4 16-6 22-2 7-1 18 3 29 1 6 4 11 6 16l8 10 12 6 16 3c4 0 9 0 13 2a275 275 0 0 0 48 12l1-2-2-1c-2 1-9-2-18-4-11-4-24-9-26-11-5-2-10-3-16-3-4-1-9-1-13-3a30 30 0 0 1-16-13l-7-14c-3-10-5-20-4-26l5-22c0-6-1-11-3-16h-2v1ZM2005 354c-1-1 0-2 1-3l6-5a80 80 0 0 1 15-9l6-3 3-2 12-4 4-2 6-4 1-2h-2l-8 2-3 1-11 2a39 39 0 0 0-10 4l-7 4-10 10-5 7v5h1l1-1Z"/>
  <path d="m2009 366 4-5 9-6a210 210 0 0 1 53-25l15-4 23-6c8-2 16-6 24-10a1 1 0 0 0-2-3l-18 7-26 5a537 537 0 0 0-27 6 113 113 0 0 0-30 16l-14 11-10 8-3 5 1 2 1-1ZM2013 390c0-3 3-6 6-9 7-7 17-13 23-17 8-6 17-10 25-13l26-8a470 470 0 0 0 22-7c7-3 13-7 21-9 8-4 18-6 26-9a76 76 0 0 0 19-11l5-5 2-4v-1a1 1 0 0 0-2-2l-1 2-2 3-4 4-8 5-10 4-28 7-5 2-21 9-17 5-25 8c-9 4-18 9-26 16-6 4-16 12-22 19-4 4-6 8-6 11l1 1 1-1Z"/>
  <path d="m2024 396 5-5a246 246 0 0 1 36-24l9-3 11-1 6-1 5-3 5-5 4-2 9-3 9-2 23-4a94 94 0 0 0 23-9 62 62 0 0 0 24-19l5-6v-4a1 1 0 0 0-2 1l-1 2-5 4c-3 4-6 7-11 10-3 3-7 5-12 7a173 173 0 0 1-22 7l-23 3-10 2-10 4c-2 1-5 2-6 4l-5 4-3 2-4 1-12 2a51 51 0 0 0-18 9 280 280 0 0 0-26 22l-6 6v2h1l1-1ZM2069 384l-7 2-8 5-7 4-8 5-7 4-7 5-8 6-3 2a1 1 0 1 0 0 3l5-2 9-4 8-4a105 105 0 0 0 15-8l7-6 6-7 6-3v-1l-1-1ZM2071 398a94 94 0 0 0-18 8 59 59 0 0 0-9 6 69 69 0 0 0-9 9l-5 8a1 1 0 0 0 2 2l11-9 6-4 2-2 6-5 7-5 8-6 1-1-2-1ZM2044 424c1 1-2 1-2 2l-1 2c0 2 0 3 2 4 3 2 8 3 13 2l13-2 13-2a17 17 0 0 1 8 3v2l3 1a1 1 0 0 0 0-3v-2l-5-4-6-1c-7-1-18 1-27 1h-2l6-5a207 207 0 0 1 21-17l17-8a1 1 0 1 0 0-2c-9 1-16 4-23 8-8 4-14 9-20 13l-10 8Zm48 9Zm-44-2-1 1 1-1Zm-4-7Z"/>
  <path d="m2094 415 4-1 6-5 8-8c2-1 4-3 5-6l1-5v-1l1-1-1-1h-2l-1 3-2 3-5 4-9 6-6 4-4 3-2 2v4l7 9 4 3 3 2a1 1 0 0 0 2-3l-2-2-3-4-4-6Zm-1 0-1 1h1v-1ZM2129 380l1-1 3-2 9-7a100 100 0 0 1 19-11l9-4a223 223 0 0 0 16-9l16-12 9-9c1-2 2-4 1-6a1 1 0 0 0-2 1l-1 1-2 3-8 6-9 6-14 7a402 402 0 0 0-33 20l-5 4-7 8-4 3 1 3h2l-1-1ZM2154 374h6a1 1 0 0 0-1-3l8-3a250 250 0 0 0 26-14l7-4 18-9 6-3 4-2 7-1 4-1c2-2 4-4 4-7 1-3 0-7-1-9v-3l1-1-1-1-2 1-1 4v9l-2 3h-3l-8 1-5 1-6 2a173 173 0 0 0-21 11l-15 9-14 9-13 7-2 1v2s0 2 2 1h2Zm0 0ZM2142 395l1-1v-1h-4l-1 2a191 191 0 0 0 23 11 237 237 0 0 0 38 8l17 2 24 1c3 1 6 1 8 3h2v-2l-9-5-24-4-17-3-15-2-23-3a179 179 0 0 1-20-6Zm-2 0c0 1 0 0 0 0ZM2161 388h1l-1-1h-3v2l5 4a133 133 0 0 0 22 8l16 3a139 139 0 0 0 16 3 249 249 0 0 0 34-1l-1-2a418 418 0 0 1-33-5l-9-1-9-2-13-2a178 178 0 0 1-25-6Zm-1 1ZM2181 379l8 4c5 3 13 4 18 6l15 4a171 171 0 0 0 25 4 460 460 0 0 0 25 0l-1-1-26-6a852 852 0 0 0-25-6l-12-2-18-2-8-3h-1v2ZM2165 445h7a76 76 0 0 1 13 3l6 2 9 3a222 222 0 0 0 37 5l-1-1-17-7-12-4-8-2-12-2a72 72 0 0 0-15 0l-6 1h-1v2ZM2245 480l1 1a30 30 0 0 0 8 5l8 4 9 4a128 128 0 0 0 31 6h10l7-2a1 1 0 0 0-1-2h-6l-9-1-14-4-10-3-6-1-10-3a118 118 0 0 1-15-4c-3-2-3-1-3 0Z"/>
  <path d="M2257 474c0 2 1 4 4 6l12 5a147 147 0 0 0 23 7l6 1a115 115 0 0 0 31-2l1-2-2-1a119 119 0 0 1-23-2l-8-1-6-1-10-2-11-2-12-3-2-1-1-1v-1h-2ZM2266 462c1 3 4 5 7 6l11 6 11 4a120 120 0 0 0 20 5l16 2 16-2a1 1 0 0 0 0-3l-19-1-10-3-11-2-10-3-11-3-12-3c-3-1-5-2-6-4h-2v1Z"/>
  <g>
    <path d="M391 566c5 4 8-10 14-14 5-4 13-8 19-10 7-2 16 1 22-3 11-8 37-36 47-45l12-11c4-6 7-21 10-24 3-2 6 7 9 8 6 1 17 4 24 3 7-2 11-11 17-14 7-4 25-6 25-9 1-3-14-8-21-9-5-1-15 3-15 1-1-2 9-11 13-14s15-3 14-4l-19-3c-15-3-13 6-13 6-4 0-14 3-12-1 4-6 33-33 35-39 0-2-25-5-35 0-9 6-13 24-22 32-9 9-22 16-32 20-9 4-22 3-30 7-8 5-12 13-19 19-7 7-25 22-27 20-2-3 14-26 16-34 1-5-7-12-5-13 1-2 8 4 12 3 3 0 5-4 7-7 2-4 2-10 6-12 5-3 16-2 24-5 9-4 21-14 27-20 4-3 5-9 9-12 3-3 10-1 13-6 3-7 10-27 10-39 0-11-11-25-10-32 1-6 11-5 16-8 7-4 23-12 29-18 4-3 3-14 8-14 7-1 25 9 30 13 3 2-2 8-2 11-1 5-1 12 1 13 2 2 6-2 9-4s6-5 7-9c2-5 0-15 2-17 2-1 8 5 11 7s8 8 9 6-2-12-2-17c-1-5-6-14-1-13 4 1 26 19 29 19 4-1-8-19-7-21 1-3 11 7 13 7 2-1-5-9-2-11 2-2 17 0 16-4-1-3-14-14-21-17-7-4-15-4-22-4-6-1-14 2-19 1-4-1-7-3-11-6s-9-15-18-16-26 6-39 10c-13 5-30 15-38 17l-7 1c-5 2-19 13-24 14-4 1-5-7-7-9s-6-1-7-3c-1-1 2-5 1-8-1-4-8-13-11-14-3-2-7 3-9 3-3-1-3-6-5-7-3-3-9-10-12-9-4 1-6 11-8 14l-2 3-7 1c-4-1-11-5-15-4-3 2-3 11-6 12-2 1-8-1-10-4-5-4-9-14-15-20-9-9-29-22-38-33-8-8-18-33-19-30-1 4 12 33 14 49 3 16 3 43-1 48-3 6-14-10-20-14-5-4-12-11-17-12s-11 7-13 7c-1 0 5-6 4-9-3-6-14-23-24-29-9-6-23-7-31-6-9 1-17 15-22 14-4-1-2-14-5-19-5-7-15-19-24-24-8-5-20-8-28-7s-18 14-22 12 0-15-2-22c-2-9-6-24-10-30-3-5-13-5-13-9 0-2 3 3 6 1 4-2 9-10 9-12 1-4-5-9-10-12s-14-3-19-7c-8-5-19-19-26-23-4-2-14-4-15 1 0 4-2 14-10 14-11 1-3 30 9 35 6 2 16 10 24 12h2c5 1-5 8-7 13-6 17 7 57 13 59 4 1-1-1-1 4 3 20 3 62 15 78 11 15 27 32 35 44 5 7 6 16 12 23 17 18 63 81 94 88 21 5 55 6 64 11 25 14 42 19 46 30 3 6 14-7 17-4 1 2-3 3-4 8-1 4 2 12 2 16l10 36 9 28c5 11 12 33 17 37Z" style="fill:#fff"/>
    <path d="M38 44h-1c-5 1-7 3-9 6-2 4-3 9-3 13 0 6 3 11 8 15a117 117 0 0 0 34 18h3a1 1 0 0 0 1-1l-1-1h-5c-5-3-17-9-25-16-5-4-9-9-9-15l2-8c1-2 2-4 5-4h6l9 5 1 1h3a4 4 0 0 0 1-7l-1-1-4-2-6-3-2-2v-3l3-4h5l5 2 19 18 10 6 11 3 9 3c3 1 4 3 5 5v4l-5 8c-2 2-5 3-7 1a1 1 0 1 0-2 2c3 3 8 2 11-1 3-2 6-6 7-9v-6c-1-3-3-6-6-8-6-4-15-5-20-7l-9-6-18-19c-2-1-6-3-10-3h-9c-3 2-5 5-6 8v8ZM122 144l1-2 1-3 2-9v-8l-1-5-2-9-5-8-5-5v-1h-2v2l3 7a28 28 0 0 1 3 10v4l1 7 2 8v6l-1 5 1 2a1 1 0 0 0 2-2v1Z"/>
    <path d="m154 171 1-1-1-2a4 4 0 0 0-7 0v3l-2 6-2 4h-2l-5-2-7-5-4-3v-6l-4-12c-1-2-4-4-8-3s-5 2-6 4c-2 2-2 4-1 7 2 4 5 8 9 10 2 1 4 1 5-1l1 3 4 5 8 6c2 2 6 4 10 4l6-3v-1l2 4c2 4 5 7 9 9 7 2 16 3 24 0 8-2 14-7 18-16 3-11-2-23-13-32-13-12-34-19-46-15-3 1-7 2-10 5l-5 5c-1 2 0 5 1 7s3 4 4 3a1 1 0 1 0 0-3h-1l-1-2v-3l4-4 9-4c10-3 24 2 35 11 7 4 12 10 15 16 2 4 2 9 0 13-2 6-7 10-13 12s-13 1-19-1l-4-4-4-13v-1Zm-34-3-1-11c-1-2-3-4-6-3-2 0-3 1-3 2-2 1-1 4 0 6 1 3 3 5 5 6h5ZM228 233v1-1h1-1l1 1h-1 3v-1l-1-2-10-11-16-10-17-5-6-1h-5l-10 5-13 11a70 70 0 0 0-14 28v11a1 1 0 1 0 2 1l2-12 1-2c3-8 8-15 14-21a54 54 0 0 1 21-13h1l6 1 16 3 15 8 11 9Z"/>
    <path d="M194 205c2-6 5-10 8-14 4-7 10-12 16-15 7-2 14-3 22-1 4 1 9 2 14 5l10 8 9 10c4 6 6 12 2 16a1 1 0 1 0 2 2c6-5 5-12 1-20a62 62 0 0 0-21-23c-5-3-10-5-16-6a40 40 0 0 0-25 3l-11 8c-6 7-10 15-13 26l1 1h1ZM290 208l-1-1-1 1v2l10 9 4 2 3 3 7 3 9 6a1 1 0 1 0 3-2 49 49 0 0 0-16-15l-6-3-5-2-7-3Z"/>
    <path d="m326 165 13 14 24 18 7 6c5 6 8 13 13 18h2v-2l-12-18-7-8c-8-5-16-11-23-18-4-5-9-9-12-15l-11-16-3-7-2-3-2-1c-1 0-5 2-4 6l2 6 4 12 7 23c1 5 3 10 3 16 2 10 1 21-1 32l-4 34c0 11 1 21 6 29a1 1 0 1 0 2-1c-4-8-5-18-4-28l6-33a119 119 0 0 0-4-64Zm-9-26v-2 2ZM252 270l1 7a55 55 0 0 0 9 15 76 76 0 0 0 18 15l10 5 11 4 12 2c3 0 6-1 8-3a1 1 0 1 0-2-2l-6 1-10-4a262 262 0 0 1-27-14 87 87 0 0 1-20-20 20 20 0 0 1-2-6l-1-1c-1-1-2 0-1 1ZM182 333l-1-1h-1v2l7 10c2 4 7 9 14 13 6 5 13 7 18 6 8-1 14-3 21-6 6-2 11-5 17-9l25-11 14-1h15c4 0 9-2 12-6a1 1 0 1 0-2-2c-3 3-7 4-10 4-5 1-10 0-15-1h-16l-13 4-15 7-10 5c-7 4-15 8-24 10-4 1-10-1-15-4-6-3-11-7-13-11l-8-9Zm0 0v-1 1ZM212 366v-1h-2v1l1 2 5 5 11 11 10 5 11 6 12 6a43 43 0 0 0 26 3c5-1 10-2 13-4l8-5 3-1 4-1 10-1c4-1 8 0 12 1l12 3 6 4 4 2a1 1 0 0 0 1-3l-3-2-6-4-15-6-11-1h-10l-5 1-5 2-8 4-11 3h-12l-10-2c-8-3-15-8-24-10l-9-4-13-9-5-5Zm0 0Z"/>
    <path d="M230 370c0 2 1 3 3 4l9 3c4 2 9 1 13 0l13-7c4-3 8-6 12-7 3-2 8-5 13-6 3-1 6-2 9 0l12 7 7 3a1 1 0 0 0 0-3l-5-3-12-10c-3-2-7-2-12-1-6 1-12 4-16 6l-12 8-11 7c-3 2-7 3-10 2l-8-1-2-1-1-1a1 1 0 0 0-2 0ZM340 259v-4c0-3 2-6 3-8l3-6 1-7v-7l-3-9-3-9a1 1 0 0 0-3 1l1 9a117 117 0 0 1 1 14l-1 6-2 5-1 10c0 4 1 6 3 7a1 1 0 0 0 1-2ZM369 398l-3-1-3-3-3-4c-3-2-3-6-3-10l2-5 4-3h2l6 2 5 4 1 2c0 2-2 2-3 2-1 1-3 0-4-1l-1-1-1 1c0 3 3 5 6 6 4 0 7-2 8-6s-2-9-7-13c-3-2-7-4-10-4l-6 1-5 5c-2 2-3 6-4 9 0 6 2 12 7 15l8 6c2 1 4 1 5-1a1 1 0 1 0-1-1ZM343 296h-1 1c6-3 12 0 15 4 4 5 5 12 1 18l-3 3-2 2h1c-6 2-9-2-10-7l-1-6 2-4 3 1 1 1 2 4a1 1 0 0 0 2-2l-1-1v-3l-2-2c-3-2-5-2-7-1-3 2-5 8-4 14 2 8 7 14 16 12l4-2 4-5c7-9 6-19 1-26-5-8-15-12-25-8l-3 2-3 5-5 6-2 5c-2 6-3 16-2 25 2 9 4 18 8 24l8 15c2 2 4 3 5 2a1 1 0 1 0-1-2c0 1 0 0 0 0h-1l-3-5-5-12c-3-6-4-14-5-22 0-9 0-17 3-22l2-4 4-5c1-1 2-6 3-4ZM342 280a83 83 0 0 1 6-12l5-8 4-5 8-7 11-9 14-1h-1c1-1 1 1 1 1l3 2c4 3 3 8 1 12-3 6-8 11-12 13h-3l-2-2c0-3 0-7 2-9a1 1 0 1 0-2-2c-3 3-5 9-3 14l3 3c1 1 3 2 6 1 7-2 15-10 19-18 3-7 2-14-5-19l-1-1-2-2-4-1c-9 0-13 0-17 2s-7 5-12 11l-8 8-4 6-5 9a61 61 0 0 0-4 13l1 2 1-1Z"/>
    <path d="M400 271h-1l1-1 5-16a68 68 0 0 1 23-23l6-2 10 2 7 5c6 5 9 13 13 21s7 17 13 22a1 1 0 0 0 2-2c-5-5-7-14-10-22-3-9-6-18-12-24l-10-8-13-2-8 2-9 7c-7 8-14 17-16 23a244 244 0 0 0-3 19h1l1-1Zm-1 0h1-1Z"/>
    <path d="m453 262-3-1-13-6h-5l-2 4c0 9 6 24 7 38v9l-2-4c-2-3-6-8-11-11-4-3-8-4-11-5l-15 2c-3 2-6 4-7 7v8l1 5-2-1v-1l-2-1h-3c-1 1-2 1-2 3a108 108 0 0 0 7 39l5 11 3 7 2 4h-2c-5-1-11 1-17-1l-10-7h-1l-1-1-1 1v1l2 1 10 7 4 2c6 1 12-1 18 2l2 2 4 4 6 6a2 2 0 1 0 3-3l-6-6-5-8-3-5-2-9-5-11-5-17-1-11a64 64 0 0 1 8 6l2 1c1 0 7-3 3-7l-2-5-2-7v-7l1-1 4-1 9-1c2 0 5 2 8 5l8 8 4 6 3 3a4 4 0 0 0 5-2c3-5 3-11 3-18-2-13-8-28-8-36l3 1c5 2 10 5 13 5 2 1 4 0 5-2l-1-6c-2-5-7-12-12-16l-7-4-5 1-1 6a1 1 0 0 0 2 0l1-4h3l5 4c4 3 7 8 9 12l2 5Zm-83 99v1-1Z"/>
    <path d="m354 357-1-1-1-1-2-1c-1-2 0-6 1-9s2-5 4-6h4l5 2 5 4v2l-2 2h-2l-1-1h-1v-1a1 1 0 1 0-2-2v5l4 3c3 1 6 1 9-3s1-9-3-14a21 21 0 0 0-10-5l-9 1c-3 2-6 5-6 9-2 6-1 12 1 15l2 1 2 1h1a1 1 0 1 0 2-1ZM375 298a1 1 0 0 0 0-2h-3c-3-2-6-5-8-9l-5-11a13 13 0 0 1 0-5v-2h1l-1 1h3l7 4 7 6 1 2-1 1-1-1h-1l-1-1a1 1 0 0 0-2-2l-1 4 5 4c2 0 5 0 6-3 1-2 1-4-1-7-1-3-4-6-7-9l-10-6h-7c-2 1-4 3-4 6-1 3 0 8 1 10l7 12c3 4 6 7 10 9h4l1-1Zm-2-17Zm-14-12v1-1ZM377 327v4-1l-2-1-3-3-2-3 1-1-2-1-1 1-1 4v3l2 4 2 3 6 2 3-1 2-1c1-1 3-4 2-7-1-2-2-5-4-6l-3-1-1 1v3a1 1 0 0 0 1 1Zm0 3h1-1Zm1-4 1-1-1 1ZM412 258h1-1l6 1c1-1 2 2 2 2l2 6 1 5-2 3h-1l-1-2a1 1 0 0 0-3 0c-1 4 1 5 3 6 3 1 7-2 9-5l1-7-2-9-4-5-5-2h-8l-3 3-1 6 3 15a1 1 0 0 0 2-1 37 37 0 0 1 1-14v-2ZM401 232v-1l-2-3-1-4v-1l3-4 4-4h2l4 1 4 3v4h-1l-1-2-1-2-2 1c0 4 2 7 5 7 2 1 4-1 6-4 1-5-2-10-6-13-2-2-5-3-7-3-3-1-5 0-7 1s-5 4-6 8c-2 4-3 8-2 10l6 7 3 1a1 1 0 1 0-1-2Zm0 0ZM428 215c-2-4-1-8 1-11l3-2h2l3 1c4 1 5 3 5 5v3l-1 1-2-2h-2l-1 2c2 3 3 4 5 4 3 1 6-2 7-7a13 13 0 0 0-7-14l-4-1c-5-1-8 1-11 4l-3 5c-1 5 0 10 3 13l2 1v-2ZM455 219l-1-1v-1l1-1 4-2 3 2 2 3c2 1 3 2 3 4l1 1v1l-1 2v-1a1 1 0 0 0-2 2c0 2 1 2 2 2 1 1 2 0 4-1l2-5v-3a18 18 0 0 0-7-11l-4-2-5-1-5 5c-2 2-3 5-2 7l4 2a1 1 0 0 0 1-2ZM470 242l1-1a14 14 0 0 1 3-3l1 1 2 3 4 9 2 7h1l-1 4h-1c-1 0-2 1-2 3l1 2 4 4c3 2 9 3 11 3l1-1-1-1-8-5 1-2 2-5v-4l-1-4a49 49 0 0 0-7-14l-6-4-5-1-1 2-4 6c0 2 0 3 2 3h2a1 1 0 0 0-1-2Zm15 25-1 1 1-1Zm1-2v-1 1Zm-3-3 1-1-1 1Zm-13-20Zm0 0Zm0 0h-1 1ZM436 369v2h1l1-1 4-10 6-7 8-7 3-2 6-1c4 1 9 2 14 1l6-4a1 1 0 1 0-2-2c-4 3-9 1-13 0l-7-2h-5c-3 0-5 2-8 4l-7 8-5 10-2 11Zm0 0v1-1Zm1 0h-1 1Z"/>
    <path d="m457 367 3-4 4-4h4l8-2c3-2 5-4 7-9l-1-2-2 1c-1 2-3 3-5 3l-3 1h-8a10 10 0 0 0-7 6l-2 7c-1 2-1 4 1 5h1v-2ZM456 384c-1-2 1-3 2-4l3-2 4-2 2-1a58 58 0 0 0 9-9 1 1 0 1 0-2-3l-5 2-5 2-3 2-3 3-4 4c-2 4-2 7 0 9a1 1 0 1 0 2-1Z"/>
    <path d="m498 285-2 8-1 14 3 10 13 23c2 5 3 11 2 15l-2 6-1 9 1 3-3 1-6 3c-5 4-7 10-11 15l-5 4-21 14a32 32 0 0 1-17 5h-22c-9 1-23-1-31-7-6-4-8-9-4-17l2-1 5 3c4 2 7 6 8 8v2h-2a1 1 0 0 0-3 0c0 3 2 4 5 3 2 0 4-3 3-6s-7-11-13-13c-4-2-8-1-9 2-6 10-3 18 4 24 9 7 25 10 35 9 7-1 15 0 22 1l10-1 11-5 21-14 7-6 10-14 3-2 5-1h1a3 3 0 0 0 3-5l-1-3-1-2a64 64 0 0 1 1-13c2-4 1-10-1-15-3-10-11-21-16-27l-2-8-1-14 2-7-1-3h-1v2Zm0 0ZM509 296v-1 1-1h-2v1l1 2 6 9 4 6 2 6a116 116 0 0 1 3 18 469 469 0 0 1 3 12l1-1 1-11 1-12-2-8c0-3-2-5-3-7l-6-7-8-7h-1ZM525 300h-2v2h2l11-4 5-2 7-3a53 53 0 0 0 7-4c3-2 6-4 8-8l2-2 1-6 1-2a1 1 0 1 0-2-2l-2 2-4 7-4 3-5 2-3 2a68 68 0 0 0-10 5l-5 4-7 6Zm0 1ZM556 239c-2 2-2 4-2 8a36 36 0 0 0 19 24l8 4h5l7 1h2a1 1 0 0 0 2-2l-3-2-11-3-4-3-6-4-4-3a44 44 0 0 1-11-13v-7h-2ZM491 242v-1 1-1l5-2 8-5c2-1 4-2 5-1 4 1 10 0 17-2l22-10 6-4 1-1 14-5 12-5h10l6 5 16 14c4 2 7 3 8 1a1 1 0 0 0-1-2h-2l-6-5-14-15-4-4c-5-2-9-2-14-1l-14 5-12 4-4 2-6 5-20 10c-5 2-10 4-14 3l-6 2-9 7-5 2-1 2 2 1Z"/>
    <path d="m600 300-2 1v-6a99 99 0 0 1 10-34 91 91 0 0 1 23-30c7-4 13-5 19-4 11 2 22 10 31 19a1 1 0 0 0 2-2c-6-7-13-14-21-18-6-4-12-6-19-6-6 0-12 2-19 7l-9 9a91 91 0 0 0-20 63c0 3 1 5 3 5l1-1 1-1 1-1-1-1Z"/>
    <path d="m602 298 2 2 3 1 8-4 2-3 1-3v-9l-2-6 1-3a1 1 0 0 0-2-2c-2 1-3 4-4 7v6l-1 3v5l-1 1-3 3-1 1-3-2a1 1 0 1 0 0 3Zm0 0ZM666 257l-2-1-6-5-2-2a3 3 0 0 0-4 3l1 3 3 9 1 2-6-4-11-7-2-1-5-4-1-1c-2-2-5 0-5 0-1 0-2 2-1 4l2 6 3 10 4 8v6l-2-1-8-6h-2l-1 1 2 1 1 1 7 7c3 2 5 1 6-1 2-3 2-6 1-9l-3-10-2-5 2 1 10 7a256 256 0 0 0 15 8h2c2 0 3-1 3-4l-1-4-1-3a50 50 0 0 0-3-7l2 1 5 2c1 0 2-1 2-3l-3-10c0-1-1-2-2-1l-1 1 2 8Zm-31 26Zm24-11v1-1Zm-27-19 1-1-1 1ZM392 507h-1 1l1-4 2-4 4-6 10-9a59 59 0 0 0 15-17l3-8v-12l-2-5-1-1h4c2 0 4-2 6-4l4-6-1-2-2 1c0 2-2 3-3 5l-5 2h-1l-3-2-4-3a3 3 0 0 0-4 4l1 2a151 151 0 0 1 4 11l-1 8-2 6-3 6-8 9-8 9-7 10-2 9c0 2 1 3 2 3a1 1 0 0 0 1-2Zm-1 0 1 1v-1h-1ZM435 462l1-1 9-10c3-3 7-5 11-6l15-3a77 77 0 0 0 53-31c3-3 7-12 11-19l3-4 2-1 13-1h21c7-1 12-3 13-8a1 1 0 0 0-2-1c-2 4-6 5-12 5l-20-1h-15c-2 0-5 3-8 7l-12 18c-4 6-9 11-15 15-6 5-12 8-19 11-10 5-20 4-30 9-4 1-8 4-12 8a123 123 0 0 0-9 13l1 1h1v-1Z"/>
    <path d="m538 424 1-2 3-3 5-6 6-5 2-3 3-3 6-5 5-7a1 1 0 1 0-2-2l-7 5-5 3a64 64 0 0 0-8 6l-4 5-5 9-2 5-1 3 2 1 1-1ZM567 421l-11 8c-4 3-6 7-6 11 0 0 0 4 4 3h1l12-1h3l5 2 5 2 2 1-14 3-7 5-12 11c-4 3-9 3-15 2-5-1-11-3-14-6a1 1 0 0 0-2 2c3 4 11 8 19 9 6 1 11 0 15-3l13-10 6-3c4-2 10-2 15-3l7-4c1-1 2-3 1-5l-2-2a76 76 0 0 0-12-5l-3-1-5-2-6-1-7 1 2-2a42 42 0 0 1 11-8h3l6-1c2-1 3-3 3-5-1-1-2-3-4-2l-7 2-13-3h-6l-6 4v4a1 1 0 0 0 1-1l2-2 3-2h5l8 2Zm20 28 1 1-1-1Zm-15-24ZM391 561v-3l-5-16-8-13-5-9-4-13c-3-11-4-22-8-33-2-4-5-12-6-20-1-5-1-9 2-12a1 1 0 0 0-1-2c-3 3-4 7-4 11-1 8 4 19 5 25 4 10 4 22 6 32a67 67 0 0 0 9 24l7 14c2 2 2 4 3 7l2 10 3 5c2 2 4 3 8 0l7-8 7-6 12-7 9-2 12-1 6-2 23-17a173 173 0 0 0 21-24l4-7c3-5 8-7 11-11l4-7a1 1 0 0 0-3-1l-3 6-13 10-1 2-4 7c-6 7-12 14-20 20-7 6-14 12-23 16l-9 2h-11l-6 2-13 7-9 7-5 7ZM120 294c0 3 1 7 3 10l13 20a375 375 0 0 0 85 79c4 3 8 4 12 5l27 3c20 4 36 7 51 14 10 5 19 11 28 21a1 1 0 0 0 2-2c-9-10-18-17-28-22-15-8-31-11-52-16l-27-4-9-4c-15-9-35-26-53-43-12-12-23-24-29-35l-13-19-2-8-1-2-3-5c-8-9-28-31-31-37a162 162 0 0 1-16-77v-4c1-1 0-2-1-3l-1-1-4-5-4-10-4-20v-20a1 1 0 1 0-2-1c-1 7-2 14-1 21l4 21 3 10 5 7 1 1a66 66 0 0 0-1 4 248 248 0 0 0 1 26 185 185 0 0 0 14 54l10 14 22 26 1 2Z"/>
  </g>
  <g>
    <path d="m2128 123 13-2s18 8 21 6c4-1-5-13 0-16 4-3 19-8 26-2 7 5 11 28 13 36 1 3-3 8 0 9 5 2 20 0 29 3 11 3 31 18 38 19 4 1-1-8 0-11 2-6 11-15 11-20 0-6-7-11-9-15-2-3-6-6-5-10l14-12c2-1 7 0 9-3 2-4 0-14 3-20 3-5 9-11 13-13 2-1 5-2 8-1l11 11c2 2 1 9 5 9 6-1 22-12 32-13 8-1 19 4 26 6 4 2 10 4 12 7s-2 9 0 10c2 0 7-7 12-7 5-1 12 1 17 3s12 7 16 11 6 9 7 14c2 6 1 16 0 20 0 2-3 6-1 7s11-3 15 1 10 14 10 21c0 10-3 25-9 34-8 12-27 25-37 34-17 15-39 20-39 0 1-7-1 6-9 20-4 6 3 20 3 27-1 7-4 16-6 20-2 3-14 5-10 5 3 0 21-5 31-3s21 8 30 14c11 7 26 19 36 29 9 9 15 23 25 30s25 11 33 14c5 1 19-2 15 0l-39 11c-14 3-32 8-45 9-11 1-28-5-31-4-3 0 9 3 13 6 4 5 8 15 14 20 8 7 20 13 31 17 11 3 37 2 35 4-3 2-34 10-51 10-20-1-49-6-68-14-18-8-37-26-47-34-6-4-9-16-14-14-6 2-15 16-20 25-7 12-16 34-22 49-6 14-9 31-14 42-4 9-9 21-14 26-4 5-13 7-17 8h-11c-5 1-18 2-20 4s7 3 7 7c-1 4-8 11-12 17l-12 21c-4 5-7 12-13 15-7 2-27-2-27 1 0 4 20 11 26 20 8 11 14 31 18 47 4 17 6 44 9 56 1 6 3 13 7 18 3 4 12 3 14 8 3 5 4 17 0 23-3 7-14 11-19 17-7 8-13 18-17 26-3 7-1 18-6 21-6 3-23 2-25-2-2-3 10-12 10-20 1-15-2-59-6-74-2-6-13-6-17-12-9-13-27-46-36-68-7-21-13-47-14-65-1-14 6-29 10-41 3-11 16-23 14-31s-19-9-28-16-21-19-29-28-19-18-21-29c-2-16 2-51 6-63 2-7 10-10 16-12l32-4c12-1 28-4 41-3s33 9 38 9c4 0-12-6-13-11-1-6 2-16 6-23 4-8 18-16 21-26s-7-23-3-33c4-11 23-27 30-36 4-5 14-12 13-16 0-4-13-3-18-7l-22-27-20-21c-8-7-19-17-25-25-5-8-7-19-9-26s0-18-2-22-13-2-13-2Z" style="fill:#fff"/>
    <path d="M2132 547v5l1 7 2 13 2 34c0 2 2 3 3 3h3l2-1 1-2 2-2 4-4 9-11 5-5a715 715 0 0 0 27-40l6-11c1-3 2-6 1-7-2-6-4-9-8-11l-11-4h-7l-1-2-4-12-7-12-13-16-7-7c-6-4-12-6-18-11l-3-2-7-3-5-3h-2l-1 1 2 2 1-1-1 1 1-1 4 4 6 2 3 3 18 11 6 6 12 17 7 12 4 13 2 3 3 1h5c4 1 8 1 10 3 2 1 4 4 5 7v2l-2 4-5 7a570 570 0 0 1-31 44l-11 10v2l-2-25c0-5-1-10-3-14l-1-11-2-5-6-2c-5-2-13-2-17-4l-8-6-16-16a176 176 0 0 1-37-41c-2-4-3-12-3-21l2-33 4-8 4-5v-1h1v-2l-2 1-3 3-6 12c-2 6-3 20-4 33 0 10 1 19 3 23a166 166 0 0 0 36 44l17 16 9 7 5 2 12 3 4 1Zm-23-102Zm0 0Zm0-1Zm0 0Z"/>
    <path d="M2165 763h1l2 14a146 146 0 0 1 6 57l-4 8c-3 4-6 8-6 11-1 3 0 5 2 6l5 1h8l11-2 4-2 3-5 4-13 4-9 8-13 4-4 14-10c6-6 9-16 8-24-1-9-7-16-17-18l-4 1-4 2-2 1-1 2 1 1 3-1 4-3h2c9 2 13 8 14 15s-2 15-7 20l-14 10-6 5-9 13-4 10-3 11-3 5-11 1h-7l6-9c2-3 4-7 4-10l1-30-6-29-3-14-2-4-12-8-3-4a335 335 0 0 1-28-46l-6-16-6-23-9-33v-21l5-20 4-12 7-14 2-7-1-1-1 1-2 6-8 14-5 13-5 19c-2 8-1 15 0 23l8 33 5 24a137 137 0 0 0 18 41 329 329 0 0 0 20 29l11 8Zm1 0-1-1v1h1v1-1Z"/>
    <path d="m2161 621-1-1-1 1c-1 1 0 2 1 2l6 1 4 2 5 5 10 13 10 23 4 14 2 18 3 19 1 10 2 5 6 15c2 3 4 4 6 4a1 1 0 1 0 0-3l-3-3c-3-5-4-12-5-15v-3l-1-12-2-18-1-18-5-16-12-23a54 54 0 0 0-23-20h-6Zm0 1h-1 1ZM2216 562v-1 1-1l1 1 4 4v2l-4 6-8 7a44 44 0 0 0-9 14l-4 11c-1 3-3 6-6 8l-9 6h-8l-2-1h-1c-1 0-1 2 1 2l1 1 4 1h6c4 0 8-2 12-4 4-3 7-6 8-10a371 371 0 0 1 9-17c2-5 7-10 11-15l4-8-1-6-3-2-2-1-2-1h-3l-1 2 1 1h1Zm-45 59Zm46-59ZM2320 223v-1 1-1h-1l-1 2h4l11 3 6 1 5 2a81 81 0 0 1 25 19l7 13 2 6a77 77 0 0 1 0 29c-2 7-5 12-11 13l-2 1 2 1c8 1 13-5 16-14a78 78 0 0 0 3-32l-3-9-7-12-7-7-10-7c-8-4-16-8-20-7h-5l-11-2c-1-1-2 0-3 1ZM2369 325v1l-1 5-4 18v2l-3 7-3 13-3 7-8 9c-10 12-25 25-33 38-6 8-10 17-14 26l-16 41-7 26c-2 8-5 17-9 23-6 9-14 15-28 13l-3 1-9 2-2 1 1 2h3c3-1 6-3 9-2 16 2 26-4 33-14 10-13 13-34 19-50l16-40 13-25c8-13 22-26 32-38l7-11 3-6 3-15 3-7v-3l3-20v-4l-1-2a1 1 0 0 0-1 2Zm0 0Z"/>
    <path d="M2266 528v-1s0-2-2-1l-1 1-5 3c-2 1-5 2-7 1l-8-2-9-1-8-2-8-3c-4-2-8-4-10-8l-2-1-1 2c2 4 4 8 8 11l7 4a51 51 0 0 0 22 6h9c3 0 6-2 9-4a48 48 0 0 0 6-5ZM2073 397l10-1 24-1a238 238 0 0 1 68 5 277 277 0 0 1 65 22l2-1-1-2a319 319 0 0 0-64-26 172 172 0 0 0-70-4l-25 4-10 2-1 2h2ZM2154 353a470 470 0 0 1-24 2h-1 1-1a4 4 0 0 0-2 7l6 3 5 1h2l-3 2v4l2 4 10 5 7 5 2 2h4v1-1 1h2s1-2-1-3l-4-2-1-1-6-6-7-4-1-1 1-1 2-2 1-5-3-4h1l13-3c2 0 2-1 2-2v-2l-2-2-3-2-1-2 1-3h4v-1c-1-2-4-3-6-2s-3 3-3 6l2 4 1 2Zm8 35Zm0 0Zm-19-17v-1 1Zm-2-5v-2 2ZM2163 349h1l3 1-1 3v4l1 1h4l2-1-1-2h1l2-3v-3l-1-2-1-2-4-1h-2l-5 2-1 2 1 1h1Zm8 7Zm0-1v-1h-1l1 1Zm-3-5-1-1v1h1-1l1 1v-1Zm-5-3Z"/>
    <path d="M2233 258v1-1 1h-1l-6 5-9 9-13 14a245 245 0 0 0-14 17v15a68 68 0 0 0 0 9l2 4 1 3-2 2-3 4-9 12-5 9c-2 3-6 11-7 17 0 4 0 7 2 9h2v-10c2-6 6-11 7-13l6-8 9-12 3-2 3-4 1-4v-3l-2-8v-18l10-15 12-15 9-9 5-6 1-3a1 1 0 0 0-2 0ZM2250 326l5 2 2 1h3a11 11 0 0 0 6-2l3-1 4-6v-1h-2l-3 1h-2l-4 1h-2l-4 1-6 2h-1v1a1 1 0 0 0 1 1Zm0 0Zm1 0h-1 1Z"/>
    <path d="m2297 299-1 1 1 2 2-1v-2l-2-4c-4-7-15-19-17-20l-8-9-4-3a136 136 0 0 0-39-17c-4-1-7-3-10-6l-10-12c-4-5-7-10-11-13l-18-18-8-7-14-11c-2-3-4-5-3-8s4-5 6-6c4-2 7-3 9-7 3-3 4-7 3-15a1 1 0 0 0-3 1c1 6-1 9-3 12s-5 4-8 5c-3 2-7 4-8 8-2 4-1 7 1 11 4 6 12 11 16 15l7 7 18 18 9 12 11 14c4 3 9 6 14 7a167 167 0 0 1 42 17l9 8a142 142 0 0 1 19 21Zm0 0Z"/>
    <path d="M2159 131c-4-2-12-8-16-9a2 2 0 0 0-4 1v1l-1 4 1 9a166 166 0 0 0 7 26 1 1 0 1 0 2-1l-3-10-2-16-1-7 1-3 14 10c3 1 5 0 5-1 2-1 3-3 3-5l-1-11c0-2-1-5 1-7l1-1 9-1 11 1 3 4a76 76 0 0 1 8 33l-1 1h-7l-7 2-2 1a4 4 0 0 0 2 8l3-1c3 0 8 0 12-2h1l23 2c4 0 9 1 13 3 9 4 19 8 28 14 6 3 11 7 16 12l11 14a25 25 0 0 0 7 7c5 3 11 5 16 9a1 1 0 0 0 2-2l-4-3c-5-4-11-6-15-10l-3-3c-4-5-6-11-10-15-5-6-11-10-17-14-9-6-19-10-28-15l-11-4-21-2v-7a81 81 0 0 0-10-31l-5-6-6-2a49 49 0 0 0-21 2l-4 3-1 9 2 11-1 2ZM2251 228h-1v1h-1l-1 1h-1l-1 1-2 2-3 3a1 1 0 1 0 1 2h5l3-1 2-1 3-3v-3l-1-3-2-2-2 1v1l1 1Zm1-2v1-1ZM2315 74c-1-4-4-5-7-5l-11 5-9 10c-2 4-4 9-4 13-1 8 1 15 7 19l5 3 8 1a17 17 0 0 0 12-4c2-2 6-5 7-9 2-2 2-4 2-6-2-6-7-10-12-10-5-1-10 2-11 9l1 1c1 1 1 0 2-1 1-4 5-6 8-5 3 0 6 3 6 7v1l-2 3-5 4-4 2h-3l-7-1-3-1c-3-2-4-5-4-8v-8c2-6 5-13 9-17 1-2 5-4 8-5 2 0 4 0 5 2a1 1 0 0 0 2 0ZM2329 91l4-2 5-2 8-3 18-3a43 43 0 0 1 16 2c5 2 10 3 13 7 2 2 3 4 3 7v3l-1 2-6-1h-2l-1-1 1-1a1 1 0 0 0-2-2c-2 1-2 2-2 3l2 3c1 1 4 3 7 3h4c2 0 3-1 4-3l2-5c0-5-1-9-4-13s-9-7-15-9a40 40 0 0 0-26-1l-13 4-8 4-5 3-4 4-1 1 1 1a1 1 0 0 0 2-1ZM2411 94h4l8 3 16 12c3 3 6 6 7 10a91 91 0 0 1 1 14 54 54 0 0 1-3 18l-1 2c-3 0-4-2-4-4-1-2 0-4 3-6a1 1 0 1 0-1-2c-4 1-6 5-6 9-1 4 2 7 7 8 3 0 5-1 7-3l3-7a56 56 0 0 0 1-31c-1-5-5-9-9-13-6-5-14-8-19-10-2-1-7-3-11-3-3 0-5 1-5 3l1 1 1-1Z"/>
    <path d="m2456 150 7 1 4 5 3 9c2 7 2 14-1 22-2 7-5 14-9 20-6 7-14 14-23 21-8 6-18 12-26 15l-11 4h-6l-1-4v-7c2-5 4-10 7-13 4-3 8-5 14-5h1l1 3-1 8c-1 3-3 5-5 6l-3-1-2-2c1-1 0-2-1-2l-1 1c-1 2 0 4 2 6 1 1 3 2 5 1 3 0 6-2 8-5 2-4 3-10 2-13l-2-5-4-2c-7-1-13 2-18 6-4 4-7 9-9 16-1 2-2 7-1 10 0 4 2 7 5 8 3 2 6 2 10 2l13-4c9-4 19-10 28-17s18-16 23-23c4-7 8-15 10-23s2-17-1-24c0-3-2-7-4-10l-6-6-9-1-2 1v2h3Zm-1-2Z"/>
    <path d="M2409 203v-1l-2 1v1l1 1 7 3 4 1 15-2c4-1 8-2 10-4 5-3 8-7 8-11 0-3 0-5-2-6-2-3-6-4-9-4-4-1-11-2-17-1-4 0-9 2-11 4v2h2c2-2 6-2 9-2a55 55 0 0 1 19 5h1l1 1h-1l-2 4-4 3-11 4-9 3-9-2Zm-1 2v-1 1Z"/>
    <path d="M2431 198h3a4 4 0 0 0-2-8h-3l-3 2-5 2-4 1-1 1c-1 1 0 2 1 2l6 1h5l3-1ZM2422 148l-1 12-5 12-4 4-2 2 1 2 1-1 2-1 4-4a44 44 0 0 0 11-28v-11l-2-2c-1 0-3 0-5 3l-4 5-5 6-1 1-1-3-4-6c-5-8-9-15-14-20-4-3-8-6-15-8a1 1 0 0 0-1 3c6 2 10 5 13 8l12 21a32 32 0 0 1 3 10l1 5a4 4 0 0 0 7 2l3-4 6-8ZM2333 108h1l11-3 7-1h7l7 1 7 1 2-1-1-2-10-4-8-2h-5l-7 2-4 2-8 5-1 2 1 1h1v-1Zm0-1ZM2417 124l2-1a1 1 0 0 0-1-3c-3 1-4 3-5 4l2 3 6 3c4 0 10-1 12-7l1-5v-5l-3-4c-2-3-4-4-7-5h-8l-9 4c-2 1-6 3-7 5s-1 4 1 5a1 1 0 1 0 1-2l1-2 6-2 11-1a8 8 0 0 1 6 5l1 2-1 3c0 2-2 3-3 3a8 8 0 0 1-4 0h-2Zm0 0ZM2459 179l-1 1a7 7 0 0 1-6 0l-2-2c-2-1-2-3-1-6 0-3 2-6 4-8l1-1 1 1 1-1v-2l-3-1-9 8c-2 2-3 6-3 9l3 7 6 4c4 1 9 0 11-2 3-2 4-5 4-7-1-2-2-4-6-5l-5 1-3 1-1 2h4l4 1h1Zm0 1Zm0-1ZM2277 126l-4 2-1-2-1-1 1-3 3-6 4-6h1v1l1 1 1-1v-4h-4c-3 0-5 2-8 5l-6 7v8l1 2 2 3c3 4 7 4 10 1 3-2 5-5 5-7l-1-3h-2l-3 1a1 1 0 0 0 1 2Zm1 0h1-1Zm2-16v-1 1ZM2303 124h-1l-1-1-3 1-3 2a123 123 0 0 0-17 14l-6 7-5 12-2 11c0 2 0 5 2 7h1l1-2v-5l3-8 7-11a143 143 0 0 1 19-22l2-3 1-1 2 1a1 1 0 0 0 0-2Zm0 0h-1 1Z"/>
    <path d="m2279 160 5-1 4-1h4l1-1 3 1 5 1h3a1 1 0 0 0-1-3l-3-2-3-4h-4a12 12 0 0 0-5 1 23 23 0 0 0-6 3l-5 5v2a1 1 0 0 0 2-1Zm0-1ZM2324 153l7-2 7-2 3 1h3l4 2 7 2h9a1 1 0 1 0 0-3l-7-2-4-3-5-2-4-2h-7l-4 2-9 5c-3 2-3 4-2 5h2v-1Zm0 0ZM2331 131l3-1h21l3 1 11 3a1 1 0 1 0 1-2l-7-6a30 30 0 0 0-14-4l-8 1-10 4c-2 1-3 3-2 5a1 1 0 0 0 2-1ZM2307 139l1-2v-2l-1-1-2-2h-2l-3-1-2 1-2 1-4 3 1 2h2l2 1h6l1-1h2v1h1ZM2292 170h-1v2h1l4 3h7l3-2 3-4 1-2h-10l-2 1h-1l-5 2Zm0 2Zm1-1Zm-1-1h1-1ZM2292 180l-1-1h-2l-1 2 1 1 5 4 3 2a26 26 0 0 0 17-3l8-5 1-2h-2l-8 1-6 1h-3l-4 1h-2c-2 1-5 0-6-1Zm-1 1h-1 1ZM2330 204l2 6 6 7 7 6a23 23 0 0 0 11 4l7-1 9-1 3-1 5-2 2-1 2-1-1-2h-3l-8 2-9-1a75 75 0 0 1-11-1l-4-1-6-4-6-5-5-6c-1 0-3 0-2 1l1 1ZM2187 376l1-1-1-1c-2 0-4 0-6 2l-1 2c-2 1-2 3-1 6l2 3 3 2 3 1 5-2 2-3v-4l-1-1-4-1a1 1 0 0 0 0 3l1 1-1-1h-2l-1-1-1-1 1-3 1-1Zm-1 0ZM2518 394l-3 1c-16 7-33 13-51 16-12 2-24 2-35-1l-23-7-21-11-10-6-5-2-3-3-1-1-1-1-1-1-1 2v1h1l1 1 2 4h2l4 3 10 6a234 234 0 0 0 44 20c13 3 25 4 38 2 18-2 36-8 53-15l22-4 6-1h12l2-1h-2l-2-7h1-1l1-1-1 1a60 60 0 0 0-11 0h-11a91 91 0 0 1-43-14l-10-8c-8-8-13-17-21-24-6-7-14-14-22-20a96 96 0 0 0-49-17c-7-1-13 0-16 3v2h1c3-3 9-3 15-3l22 5c8 3 17 8 24 14l21 19c7 8 13 18 20 25l11 10a94 94 0 0 0 31 13Zm-154-13h-1 1Zm1-1v1-1Z"/>
    <path d="M2380 327h1a58 58 0 0 1 24 5l12 6a174 174 0 0 1 26 23c6 6 11 14 18 19 5 4 11 6 18 6a1 1 0 1 0 0-3c-6 0-11-3-15-6-6-6-10-14-15-21l-13-13-15-11a67 67 0 0 0-29-9c-2 0-12 0-14 2-1 1-2 2 2 4l1-1v-1h-1ZM2338 411h1-1l2 3 11 11 4 4c13 10 25 19 38 27 9 4 18 9 29 12s24 5 37 4a156 156 0 0 0 43-8l12-3a93 93 0 0 0 10-2 50 50 0 0 0 3-1l2-1a3 3 0 0 0-4-6l-3 1-7 1-8 2a101 101 0 0 1-55-17l-9-9-6-11-1-2-2 1v1l1 1 6 12 9 10 12 7a104 104 0 0 0 29 11c-10 3-21 5-32 5a110 110 0 0 1-63-14 275 275 0 0 1-43-28l-11-10-2-3-2-1-1 2 1 1Zm97 7Zm-1 0Zm2 0Zm-98-7Z"/>
  </g>
</svg>
